<svg xmlns="http://www.w3.org/2000/svg" viewBox="0 0 64 64">
  <rect width="64" height="64" rx="14" fill="#0a141f"/>
  <g fill="#f0f8fc">
    <polygon points="32,7 36,15 32,18 28,15"/>
    <polygon points="29,17 35,17 34,40 32,45 30,40"/>
    <polygon points="30,42 32,47 30,55 28.4,49"/>
    <polygon points="34,42 32,47 34,55 35.6,49"/>
    <polygon points="30,20 6,34 14,33 30,27"/>
    <polygon points="30,28 10,41 19,39 30,34"/>
    <polygon points="34,20 58,34 50,33 34,27"/>
    <polygon points="34,28 54,41 45,39 34,34"/>
  </g>
</svg>
